<svg width="196" height="59" viewBox="0 0 196 59" fill="none" xmlns="http://www.w3.org/2000/svg">
<g clip-path="url(#clip0_134_857)">
<path d="M194.619 51.9025C194.619 54.9718 192.13 57.4583 189.05 57.4583H6.86729C3.79117 57.4583 1.29431 54.9718 1.29431 51.9025V7.59642C1.29431 4.5272 3.79117 2.03271 6.86729 2.03271H189.054C192.134 2.03271 194.623 4.5272 194.623 7.59642L194.619 51.9025Z" fill="white"/>
<path d="M189.05 58.7516H6.86735C3.08411 58.7516 0 55.6784 0 51.9027V7.5966C0 3.81695 3.08012 0.739746 6.86735 0.739746H189.054C192.837 0.739746 195.921 3.81695 195.921 7.5966V51.9027C195.917 55.6784 192.833 58.7516 189.05 58.7516Z" fill="#A6A6A6"/>
<path d="M194.619 51.9025C194.619 54.9718 192.13 57.4583 189.05 57.4583H6.86729C3.79117 57.4583 1.29431 54.9718 1.29431 51.9025V7.59642C1.29431 4.5272 3.79117 2.03271 6.86729 2.03271H189.054C192.134 2.03271 194.623 4.5272 194.623 7.59642L194.619 51.9025Z" fill="black"/>
<path d="M43.7449 29.4403C43.7009 24.7626 47.5761 22.4876 47.7558 22.3839C45.5626 19.1869 42.1629 18.7519 40.9644 18.716C38.108 18.4166 35.3395 20.4242 33.8813 20.4242C32.3992 20.4242 30.158 18.7439 27.741 18.7958C24.633 18.8437 21.7246 20.6397 20.1346 23.4336C16.8428 29.125 19.2997 37.4865 22.4517 42.0883C24.0297 44.3434 25.8714 46.8578 28.2844 46.766C30.6414 46.6702 31.5243 45.2653 34.3727 45.2653C37.1931 45.2653 38.0201 46.766 40.481 46.7101C43.0138 46.6702 44.6078 44.4471 46.1299 42.1722C47.9516 39.5899 48.6827 37.0475 48.7146 36.9158C48.6547 36.8958 43.7968 35.0439 43.7449 29.4403Z" fill="white"/>
<path d="M39.0987 15.6907C40.3691 14.1062 41.236 11.9469 40.9923 9.75977C39.1546 9.84358 36.8575 11.029 35.5352 12.5815C34.3647 13.9505 33.318 16.1896 33.5897 18.2969C35.6551 18.4446 37.7764 17.2512 39.0987 15.6907Z" fill="white"/>
<path d="M72.2729 38.3923L70.639 33.3515C70.4672 32.8366 70.1396 31.6233 69.6642 29.7155H69.6043C69.4125 30.5377 69.1049 31.751 68.6854 33.3515L67.0795 38.3923H72.2729ZM77.9218 46.4426H74.626L72.8202 40.7711H66.5401L64.8223 46.4426H61.6104L67.8345 27.1372H71.6777L77.9218 46.4426Z" fill="white"/>
<path d="M90.7377 39.4225C90.7377 38.0655 90.4341 36.948 89.8189 36.0699C89.1477 35.1519 88.2489 34.6969 87.1223 34.6969C86.3592 34.6969 85.6641 34.9524 85.0449 35.4553C84.4217 35.9621 84.0182 36.6247 83.8264 37.4469C83.7305 37.83 83.6826 38.1413 83.6826 38.3888V40.7116C83.6826 41.7214 83.9942 42.5795 84.6134 43.278C85.2366 43.9764 86.0436 44.3237 87.0344 44.3237C88.2009 44.3237 89.1078 43.8727 89.7589 42.9786C90.4141 42.0766 90.7377 40.8952 90.7377 39.4225ZM93.8937 39.3107C93.8937 41.6775 93.2505 43.5494 91.9642 44.9223C90.8096 46.1436 89.3794 46.7583 87.6696 46.7583C85.8239 46.7583 84.4976 46.0997 83.6906 44.7827V52.0865H80.5945V37.0956C80.5945 35.6109 80.5545 34.0823 80.4786 32.5217H83.1992L83.371 34.7289H83.4309C84.4616 33.0645 86.0316 32.2344 88.133 32.2344C89.7749 32.2344 91.1492 32.8809 92.2438 34.1821C93.3424 35.4832 93.8937 37.1914 93.8937 39.3107Z" fill="white"/>
<path d="M106.762 39.4225C106.762 38.0655 106.458 36.948 105.843 36.0699C105.176 35.1519 104.277 34.6969 103.15 34.6969C102.387 34.6969 101.692 34.9524 101.069 35.4553C100.445 35.9621 100.042 36.6247 99.8542 37.4469C99.7583 37.83 99.7104 38.1413 99.7104 38.3888V40.7116C99.7104 41.7214 100.022 42.5795 100.641 43.278C101.264 43.9724 102.071 44.3237 103.066 44.3237C104.233 44.3237 105.14 43.8727 105.787 42.9786C106.438 42.0766 106.762 40.8952 106.762 39.4225ZM109.918 39.3107C109.918 41.6775 109.274 43.5494 107.988 44.9223C106.833 46.1436 105.403 46.7583 103.693 46.7583C101.848 46.7583 100.521 46.0997 99.7144 44.7827V52.0865H96.6183V37.0956C96.6183 35.6109 96.5783 34.0823 96.5024 32.5217H99.223L99.3948 34.7289H99.4547C100.485 33.0645 102.051 32.2344 104.157 32.2344C105.799 32.2344 107.173 32.8809 108.272 34.1821C109.366 35.4832 109.918 37.1914 109.918 39.3107Z" fill="white"/>
<path d="M127.835 41.0267C127.835 42.6711 127.26 44.0081 126.117 45.0378C124.859 46.1633 123.105 46.7301 120.852 46.7301C118.77 46.7301 117.104 46.327 115.846 45.5287L116.561 42.9504C117.919 43.7527 119.41 44.1558 121.036 44.1558C122.202 44.1558 123.109 43.8924 123.756 43.3655C124.403 42.8427 124.735 42.1362 124.735 41.2622C124.735 40.4799 124.463 39.8214 123.928 39.2865C123.393 38.7517 122.506 38.2528 121.263 37.7978C117.88 36.5366 116.186 34.6927 116.186 32.266C116.186 30.6815 116.785 29.3844 117.979 28.3707C119.174 27.3609 120.756 26.854 122.725 26.854C124.483 26.854 125.949 27.1573 127.112 27.772L126.337 30.2944C125.242 29.7037 124.004 29.4084 122.622 29.4084C121.531 29.4084 120.672 29.6758 120.061 30.2106C119.545 30.6895 119.286 31.2683 119.286 31.9587C119.286 32.721 119.581 33.3556 120.177 33.8505C120.692 34.3055 121.627 34.8044 122.985 35.3393C124.651 36.0098 125.873 36.7881 126.656 37.6861C127.443 38.5761 127.835 39.6936 127.835 41.0267Z" fill="white"/>
<path d="M138.098 34.8446H134.686V41.6017C134.686 43.3219 135.285 44.176 136.492 44.176C137.047 44.176 137.503 44.1281 137.866 44.0323L137.95 46.3791C137.339 46.6066 136.536 46.7224 135.541 46.7224C134.319 46.7224 133.364 46.3512 132.673 45.6048C131.986 44.8585 131.642 43.6092 131.642 41.8531V34.8366H129.609V32.5137H131.642V29.9634L134.682 29.0454V32.5098H138.094V34.8446H138.098Z" fill="white"/>
<path d="M150.255 39.4385C150.255 38.1613 149.979 37.0677 149.424 36.1537C148.777 35.0482 147.846 34.4934 146.643 34.4934C145.405 34.4934 144.454 35.0482 143.803 36.1537C143.247 37.0677 142.972 38.1812 142.972 39.4943C142.972 40.7715 143.247 41.8691 143.803 42.7791C144.474 43.8846 145.405 44.4394 146.615 44.4394C147.798 44.4394 148.729 43.8766 149.396 42.7551C149.967 41.8172 150.255 40.7156 150.255 39.4385ZM153.463 39.3666C153.463 41.5059 152.851 43.262 151.629 44.635C150.351 46.0479 148.649 46.7543 146.527 46.7543C144.482 46.7543 142.852 46.0758 141.638 44.7228C140.423 43.3658 139.816 41.6576 139.816 39.5981C139.816 37.4389 140.443 35.6748 141.693 34.2978C142.948 32.9248 144.634 32.2344 146.755 32.2344C148.8 32.2344 150.442 32.9129 151.685 34.2659C152.871 35.587 153.463 37.2832 153.463 39.3666Z" fill="white"/>
<path d="M163.53 35.2393C163.222 35.1835 162.895 35.1555 162.555 35.1555C161.465 35.1555 160.626 35.5666 160.03 36.3888C159.515 37.1152 159.255 38.0292 159.255 39.1387V46.4426H156.159V36.9037C156.159 35.2992 156.127 33.8384 156.067 32.5213H158.764L158.876 35.1835H158.96C159.287 34.2695 159.803 33.5311 160.51 32.9763C161.201 32.4814 161.944 32.23 162.747 32.23C163.035 32.23 163.29 32.2499 163.522 32.2859L163.53 35.2393Z" fill="white"/>
<path d="M174.424 38.0214C174.448 37.1035 174.244 36.3132 173.825 35.6427C173.29 34.7806 172.467 34.3535 171.36 34.3535C170.349 34.3535 169.522 34.7726 168.895 35.6148C168.38 36.2853 168.072 37.0875 167.98 38.0214H174.424ZM177.377 38.8237C177.377 39.3784 177.341 39.8454 177.265 40.2286H167.976C168.012 41.6055 168.46 42.6552 169.323 43.3816C170.106 44.0282 171.116 44.3554 172.363 44.3554C173.737 44.3554 174.992 44.1359 176.122 43.6969L176.606 45.8442C175.287 46.4189 173.733 46.7062 171.935 46.7062C169.774 46.7062 168.08 46.0717 166.846 44.8025C165.615 43.5333 165 41.825 165 39.6898C165 37.5904 165.571 35.8423 166.722 34.4493C167.924 32.9606 169.55 32.2183 171.592 32.2183C173.601 32.2183 175.119 32.9646 176.154 34.4493C176.965 35.6267 177.377 37.0875 177.377 38.8237Z" fill="white"/>
<path d="M68.0063 16.2696L67.2033 13.791C67.1194 13.5356 66.9636 12.9489 66.7239 12.003H66.6959C66.5961 12.4101 66.4562 13.0048 66.2445 13.791L65.4575 16.2696H68.0063ZM70.7828 20.2288H69.1608L68.2739 17.443H65.1898L64.3429 20.2288H62.7649L65.821 10.7378H67.7067L70.7828 20.2288Z" fill="white"/>
<path d="M78.4292 13.3877L75.8364 20.2286H74.3543L71.8455 13.3877H73.4794L74.6499 17.0037C74.8457 17.6104 75.0135 18.1851 75.1413 18.7359H75.1853C75.2971 18.245 75.4649 17.6662 75.6766 17.0037L76.8312 13.3877H78.4292Z" fill="white"/>
<path d="M83.7385 16.8203C82.0446 16.8203 81.2017 17.2314 81.2017 18.2013C81.2017 18.9197 81.6371 19.2709 82.2443 19.2709C83.0194 19.2709 83.7385 18.6802 83.7385 17.878V16.8203ZM83.9502 20.2288L83.8383 19.4385H83.7944C83.331 20.0731 82.6518 20.3805 81.7929 20.3805C80.5665 20.3805 79.6956 19.5224 79.6956 18.3689C79.6956 16.6806 81.1617 15.8066 83.6985 15.8066V15.6788C83.6985 14.7768 83.2191 14.3258 82.2763 14.3258C81.6012 14.3258 81.0059 14.4975 80.4866 14.8327L80.1789 13.8309C80.8141 13.4358 81.6012 13.2402 82.532 13.2402C84.3177 13.2402 85.2246 14.1822 85.2246 16.07V18.5884C85.2246 19.2789 85.2526 19.8137 85.3245 20.2208H83.9502V20.2288Z" fill="white"/>
<path d="M89.3993 20.2288H87.8772V13.388H89.3993V20.2288ZM88.6083 12.2585C88.101 12.2585 87.7054 11.8633 87.7054 11.3405C87.7054 10.8176 88.1129 10.4385 88.6363 10.4385C89.1596 10.4385 89.5791 10.8176 89.5631 11.3405C89.5671 11.8913 89.1756 12.2585 88.6083 12.2585Z" fill="white"/>
<path d="M93.6221 10.2466H92.1V20.2285H93.6221V10.2466Z" fill="white"/>
<path d="M99.8781 16.8203C98.1842 16.8203 97.3413 17.2314 97.3413 18.2013C97.3413 18.9197 97.7808 19.2709 98.384 19.2709C99.159 19.2709 99.8781 18.6802 99.8781 17.878V16.8203ZM100.09 20.2288L99.978 19.4385H99.938C99.4746 20.0731 98.7955 20.3805 97.9366 20.3805C96.7101 20.3805 95.8352 19.5224 95.8352 18.3689C95.8352 16.6806 97.3014 15.8066 99.8382 15.8066V15.6788C99.8382 14.7768 99.3588 14.3258 98.416 14.3258C97.7408 14.3258 97.1456 14.4935 96.6262 14.8327L96.3146 13.8309C96.9498 13.4358 97.7408 13.2402 98.6676 13.2402C100.457 13.2402 101.36 14.1822 101.36 16.07V18.5884C101.36 19.2789 101.392 19.8137 101.456 20.2208H100.09V20.2288Z" fill="white"/>
<path d="M107.217 14.4413C106.342 14.4413 105.539 15.2036 105.539 16.2573V17.4547C105.539 18.3966 106.258 19.1749 107.189 19.1749C108.327 19.1749 109.007 18.2449 109.007 16.7682C109.007 15.3832 108.3 14.4413 107.217 14.4413ZM107.525 20.3842C106.554 20.3842 105.835 19.9731 105.371 19.1709H105.339L105.251 20.2285H103.953C103.997 19.6817 104.009 19.0591 104.009 18.3846V10.2466H105.531V14.3854H105.559C106.01 13.6271 106.741 13.244 107.744 13.244C109.394 13.244 110.549 14.6528 110.549 16.7083C110.557 18.8316 109.27 20.3842 107.525 20.3842Z" fill="white"/>
<path d="M114.328 10.2466H112.806V20.2285H114.328V10.2466Z" fill="white"/>
<path d="M121.215 16.0896C121.215 15.032 120.68 14.2896 119.709 14.2896C118.834 14.2896 118.147 15.0479 118.043 16.0896H121.215ZM122.61 17.1712H118.043C118.075 18.4684 118.93 19.1987 120.201 19.1987C120.876 19.1987 121.499 19.087 122.046 18.8755L122.282 19.9331C121.635 20.2165 120.876 20.3562 119.985 20.3562C117.844 20.3562 116.573 19.0032 116.573 16.9078C116.573 14.8124 117.871 13.2319 119.813 13.2319C121.559 13.2319 122.661 14.5291 122.661 16.4847C122.665 16.7482 122.653 16.9876 122.61 17.1712Z" fill="white"/>
<path d="M131.894 14.3577C130.795 14.3577 130.092 15.3874 130.092 16.8202C130.092 18.2291 130.811 19.2549 131.882 19.2549C132.952 19.2549 133.668 18.1573 133.668 16.7883C133.668 15.3994 132.96 14.3577 131.894 14.3577ZM131.834 20.3844C129.832 20.3844 128.534 18.8917 128.534 16.8641C128.534 14.7528 129.856 13.2441 131.946 13.2441C133.915 13.2441 135.242 14.669 135.242 16.7524C135.246 18.8877 133.879 20.3844 131.834 20.3844Z" fill="white"/>
<path d="M143.427 20.2287H141.909V16.2974C141.909 15.0881 141.446 14.4814 140.527 14.4814C139.624 14.4814 139.005 15.2557 139.005 16.1577V20.2287H137.487V15.3435C137.487 14.7368 137.471 14.0903 137.431 13.3878H138.769L138.841 14.4415H138.885C139.293 13.7111 140.124 13.2441 141.054 13.2441C142.489 13.2441 143.431 14.3417 143.431 16.1298V20.2287H143.427Z" fill="white"/>
<path d="M153.383 14.5253H151.709V17.85C151.709 18.6961 152.005 19.1192 152.596 19.1192C152.863 19.1192 153.091 19.0912 153.271 19.0473L153.315 20.2008C153.019 20.3165 152.624 20.3724 152.132 20.3724C150.934 20.3724 150.215 19.7099 150.215 17.9777V14.5253H149.216V13.3878H150.215V12.1346L151.709 11.6836V13.3878H153.383V14.5253Z" fill="white"/>
<path d="M161.441 20.2285H159.918V16.3291C159.918 15.1039 159.455 14.4852 158.536 14.4852C157.749 14.4852 157.018 15.02 157.018 16.1056V20.2285H155.492V10.2466H157.018V14.3575H157.046C157.525 13.6111 158.217 13.244 159.104 13.244C160.554 13.244 161.441 14.3695 161.441 16.1575V20.2285Z" fill="white"/>
<path d="M167.821 16.0896C167.821 15.032 167.285 14.2896 166.314 14.2896C165.44 14.2896 164.748 15.0479 164.649 16.0896H167.821ZM169.219 17.1712H164.653C164.68 18.4684 165.539 19.1987 166.81 19.1987C167.489 19.1987 168.108 19.087 168.655 18.8755L168.891 19.9331C168.244 20.2165 167.481 20.3562 166.594 20.3562C164.449 20.3562 163.182 19.0032 163.182 16.9078C163.182 14.8124 164.481 13.2319 166.422 13.2319C168.168 13.2319 169.271 14.5291 169.271 16.4847C169.275 16.7482 169.263 16.9876 169.219 17.1712Z" fill="white"/>
</g>
<defs>
<clipPath id="clip0_134_857">
<rect width="195.917" height="58.0118" fill="white" transform="translate(0 0.739746)"/>
</clipPath>
</defs>
</svg>
